# ProBuilder 4.1.0
# https://unity3d.com/unity/features/worldbuilding/probuilder
# 15.03.2020 4:15:52

mtllib ./Bird.mtl
o Bird

g Bird
v -0.2453926 -0.2180195 0.602049
v -0.6203759 -0.1553235 0.2567982
v -0.2453926 0.2180195 0.602049
v -0.6203759 0.1553235 0.2567982
v -0.51181 -0.08970577 -1.398123
v -0.51181 0.08970577 -1.398123
v -1.542812 -0.04062504 -1.139503
v -1.542812 0.04062504 -1.139503
v -2.277495 0 -0.7639228
v -1.793624 0.1239061 0.4078385
v -1.793624 -0.1239061 0.5123984
v -2.92773 0.09546864 0.3164423
v -2.92773 -0.09546867 0.4044927
v -4.268248 0 -0.206675
v -0.276122 -0.1178124 -1.820559
v -0.276122 0.1178124 -1.820559
v -0.736845 0 -3.001853
v -0.3694181 -0.04704933 -2.914378
v -0.3694181 0.04704933 -2.914378
v -0.736845 0 -2.989647
v 0 -0.04557686 -3.026968
v 0 0.04557686 -3.026968
v -0.2320894 -0.05201661 -2.224573
v -0.2320894 0.05201658 -2.224573
v 0 -0.2810957 1.038673
v 0 0.2180195 0.6821078
v 0 -0.2180195 0.6821078
v -0.3494727 0.312013 -0.1655576
v -0.3434561 0.266845 -0.9930583
v -0.3494727 -0.312013 -0.1655577
v -0.3434561 -0.2668451 -0.9930584
v 0 0.2707432 -1.283162
v 0 -0.2707432 -1.283162
v 0 0.3590097 0.1870193
v 0 -0.3590097 0.1870193
v 0.2453926 -0.2180195 0.602049
v 0.6203759 -0.1553235 0.2567982
v 0.2453926 0.2180195 0.602049
v 0.6203759 0.1553235 0.2567982
v 0.51181 -0.08970577 -1.398123
v 0.51181 0.08970577 -1.398123
v 1.542812 -0.04062504 -1.139503
v 1.542812 0.04062504 -1.139503
v 2.277495 0 -0.7639228
v 1.793624 0.1239061 0.4078385
v 1.793624 -0.1239061 0.5123984
v 2.92773 0.09546864 0.3164423
v 2.92773 -0.09546867 0.4044927
v 4.268248 0 -0.206675
v 0.276122 -0.1178124 -1.820559
v 0.276122 0.1178124 -1.820559
v 0.736845 0 -3.001853
v 0.3694181 -0.04704933 -2.914378
v 0.3694181 0.04704933 -2.914378
v 0.736845 0 -2.989647
v 0.2320894 -0.05201661 -2.224573
v 0.2320894 0.05201658 -2.224573
v 0.3494727 0.312013 -0.1655576
v 0.3434561 0.266845 -0.9930583
v 0.3494727 -0.312013 -0.1655577
v 0.3434561 -0.2668451 -0.9930584
v 0 0.05201658 -2.093375
v 0 -0.05201661 -2.093375
v 1.168156 0.1518779 0.1275206
v 1.168156 -0.1518779 0.2568589
v -1.168156 -0.1518779 0.2568589
v -1.168156 0.1518779 0.1275206
v 3.105871 0 -0.3537895
v -3.105871 0 -0.3537895
v -4.188972 0 -0.4105321
v 4.188972 0 -0.4105321

vt 9.781401 4.393104
vt 10.16158 4.04788
vt 9.850515 4.396228
vt 10.21082 4.050106
vt 10.17198 2.393472
vt 10.20042 2.394758
vt 11.09054 2.651376
vt 11.10341 2.651958
vt 11.82237 3.026393
vt 0.7264554 0.9322221
vt 0.8109826 0.9273367
vt 0.9197174 0.8637543
vt 9.784012 1.971293
vt 9.82136 1.972981
vt 0.8977804 0.7052344
vt 0.8988617 0.6663654
vt 0.896699 0.625433
vt 9.74901 1.567814
vt 9.765499 1.568559
vt 0.7180772 0.3413347
vt 0.8977804 0.3858216
vt 0.2056473 0.5852109
vt 0.2897248 0.6057814
vt 0.221127 0.5086969
vt 0.1851978 0.6749375
vt 0.3014477 0.5092615
vt 0.6034995 0.9531649
vt 0.6311772 0.9255633
vt 0.6060784 0.8908148
vt 0.6191227 0.7963811
vt 0.5996397 0.8270169
vt 0.5849314 0.7658033
vt 0.5858585 0.2379009
vt 0.5604412 0.261857
vt 0.5675458 0.2103425
vt 0.5671352 0.1538188
vt 0.5857763 0.1250259
vt 0.5595235 0.09659338
vt 0.5698763 0.806873
vt 0.5436552 0.1341361
vt 0.559297 0.09656465
vt 0.07791828 0.6627386
vt 0.5803533 0.9201697
vt 0.5437656 0.2346132
vt 0.543589 0.2672959
vt 9.296821 4.393668
vt 8.936515 4.049307
vt 9.365934 4.396792
vt 8.985753 4.051533
vt 8.946916 2.394899
vt 8.975353 2.396185
vt 8.043921 2.654925
vt 8.056799 2.655507
vt 7.324964 3.031632
vt 9.325975 1.971827
vt 9.363323 1.973515
vt 9.381836 1.568242
vt 9.398325 1.568987
vt 0.5862176 0.2380546
vt 0.5862999 0.1251796
vt 0.5605423 0.2618873
vt 0.5645593 0.7473612
vt 0.5784711 0.7356845
vt 0.5433815 0.07761437
vt 0.5560737 0.06867802
vt 0.5566916 0.06872404
vt 0.7180772 0.6607475
vt 0.7010947 0.6322665
vt 0.6744311 0.9154823
vt 0.6948656 0.8105428
vt 0.7564304 0.8350937
vt 0.6949064 0.8101783
vt 0.8256751 0.8609408
vt 0.7564988 0.8345549
vt 0.756362 0.8356325
vt 0.9118911 0.8484256
vt 0.8109826 0.2243083
vt 0.9118912 0.1453972
vt 0.9197176 0.1607258
vt 0.8249273 0.1571432
vt 0.7260176 0.2287495
vt 0.7564989 0.1315265
vt 0.8112371 0.2246709
vt 0.8253013 0.1575278
vt 0.6740634 0.2121647
vt 0.7568728 0.1318084
vt 0.6949065 0.1071499
vt 0.5860381 0.2379778
vt 0.6952296 0.1073409
vt 0.6955527 0.1075319
vt 0.7572466 0.1320905
vt 0.7264555 0.2291937
vt 0.8114915 0.2250333
vt 0.8256752 0.1579123
vt 0.7010947 0.3128536
vt 0.896699 0.3060201
vt 0.8988617 0.3469526

vn -0.6773393 0 0.7356709
vn -0.2433055 0 -0.9699497
vn -0.4551839 0 -0.8903975
vn -0.08370303 0.3873807 0.9181122
vn -0.07969321 0.4024729 0.9118009
vn -0.07568339 0.4175651 0.9054896
vn -0.3586364 0.3909087 0.8476853
vn -0.8732768 0 -0.4872244
vn 0.1270138 0.991901 0
vn 0.1638505 0.4959505 -0.4898277
vn 0.2006873 0 -0.9796554
vn -0.2915378 0 -0.9565593
vn -0.9941133 0 -0.1083461
vn -0.4686083 -0.497366 0.2753476
vn -0.1025102 -0.994732 0
vn -0.8347064 0 0.5506952
vn -0.8717533 0 0.4899451
vn -0.2565783 0.5618371 0.7864519
vn 0.05673924 -0.9831249 -0.1739145
vn -0.3009333 0.9407985 0.1560045
vn -0.6247627 0.7764198 -0.05775062
vn -0.5791951 0.8121608 -0.07019848
vn -0.6703302 0.7406788 -0.04530276
vn -0.4509313 0.8713062 -0.1936145
vn -0.3009332 -0.9407985 0.1560045
vn -0.6703306 -0.7406785 -0.04530266
vn -0.6247628 -0.7764196 -0.05775058
vn -0.5791951 -0.8121608 -0.07019848
vn -0.4509316 -0.871306 -0.1936146
vn -0.1698097 0.9673704 -0.1880406
vn -0.1698096 -0.9673704 -0.1880407
vn -0.08900092 0.9579448 0.2728015
vn -0.1859788 0.9522937 0.2135421
vn -0.2829567 0.9466426 0.1542827
vn -0.07847005 0.9954035 -0.05490324
vn -0.07015065 0.9958481 -0.05735928
vn -0.06183125 0.9962927 -0.05981532
vn -0.1859789 -0.9522937 0.2135421
vn -0.2829568 -0.9466426 0.1542827
vn -0.08900094 -0.9579448 0.2728015
vn -0.07015063 -0.9958481 -0.0573592
vn -0.06183112 -0.9962927 -0.05981528
vn -0.07847014 -0.9954035 -0.05490313
vn 0.6773393 0 0.7356709
vn 0.2433055 0 -0.9699497
vn 0.4551839 0 -0.8903975
vn 0.08370303 0.3873807 0.9181122
vn 0.07969321 0.4024729 0.9118009
vn 0.07568339 0.4175651 0.9054896
vn 0.3586364 0.3909085 0.8476854
vn 0.8732768 0 -0.4872244
vn -0.1270138 0.991901 0
vn -0.1638505 0.4959505 -0.4898277
vn -0.2006873 0 -0.9796554
vn 0.2915378 0 -0.9565593
vn 0.9941133 0 -0.1083461
vn 0.4686083 -0.497366 0.2753476
vn 0.1025102 -0.994732 0
vn 0.8347064 0 0.5506952
vn 0.8717533 0 0.4899451
vn 0.2565783 0.5618371 0.7864519
vn -0.05673924 -0.9831249 -0.1739145
vn 0.3009333 0.9407985 0.1560045
vn 0.6247627 0.7764198 -0.05775062
vn 0.5791951 0.8121608 -0.07019848
vn 0.6703302 0.7406788 -0.04530276
vn 0.4509313 0.8713062 -0.1936145
vn 0.3009332 -0.9407985 0.1560045
vn 0.6703306 -0.7406785 -0.04530266
vn 0.6247629 -0.7764196 -0.05775058
vn 0.5791951 -0.8121608 -0.07019848
vn 0.4509316 -0.871306 -0.1936146
vn 0.1698097 0.9673704 -0.1880406
vn 0.1698096 -0.9673704 -0.1880407
vn 0.08900092 0.9579448 0.2728015
vn 0.1859788 0.9522937 0.2135421
vn 0.2829567 0.9466426 0.1542827
vn 0.07847005 0.9954035 -0.05490324
vn 0.07015065 0.9958481 -0.05735928
vn 0.06183125 0.9962927 -0.05981532
vn 0.1859789 -0.9522937 0.2135421
vn 0.2829568 -0.9466426 0.1542827
vn 0.08900094 -0.9579448 0.2728015
vn 0.07015063 -0.9958481 -0.0573592
vn 0.06183111 -0.9962927 -0.05981528
vn 0.07847014 -0.9954035 -0.05490313
vn -0.08540197 0.9848261 -0.1510762
vn 0.02745108 0.9650746 -0.2605332
vn 0.08540197 0.9848261 -0.1510762
vn -0.02745108 0.9650746 -0.2605332
vn 0.08540197 -0.9848261 -0.1510762
vn -0.02745112 -0.9650745 -0.2605332
vn -0.08540197 -0.9848261 -0.1510762
vn 0.02745112 -0.9650745 -0.2605332
vn 0.1307999 0.9912286 0.01890229
vn -0.1307999 0.9912286 0.01890229
vn 0.004586633 0.9999566 -0.008113762
vn 0.00188357 0.9999744 -0.006897601
vn -0.004586633 0.9999566 -0.008113762
vn -0.00188357 0.9999744 -0.006897601
vn 0.2144914 0.382644 0.8986529
vn -0.0001108786 0 1
vn -0.2144914 0.382644 0.8986529
vn 0.3678104 0.3614943 0.8567598
vn 0.3661062 0.364563 0.8561893
vn -0.3678104 0.3614943 0.8567598
vn -0.3661062 0.364563 0.8561893
vn 0.06453547 0.995573 -0.06833476
vn -0.003018236 0.9992182 -0.03942106
vn 0.08971846 0.9936416 -0.0680225
vn 0.07387297 0.9951121 -0.06553321
vn 0.06171634 0.9902791 -0.124653
vn 0.01703767 0.9950227 -0.09818159
vn -0.06453547 0.995573 -0.06833475
vn 0.00301824 0.9992182 -0.03942106
vn -0.08653528 0.994335 -0.06172077
vn -0.07728588 0.9943162 -0.0732278
vn -0.06171634 0.9902791 -0.124653
vn -0.01703767 0.9950227 -0.09818159
vn 0.007489778 0.9896994 -0.1429647
vn -0.06169852 0.9978064 -0.02399322
vn -0.06036559 -0.9979002 -0.02347486
vn 0.006624287 -0.9919516 -0.1264441
vn -0.01636103 -0.9957651 -0.09046686
vn -0.05540245 -0.9921738 -0.1119004
vn -0.07269893 -0.9949622 -0.06903045
vn -0.08400865 -0.9948493 -0.05672275
vn -0.006289431 -0.9991787 -0.0400301
vn -0.06307832 -0.9960538 -0.0624345
vn 0.006289431 -0.9991787 -0.0400301
vn 0.06307833 -0.9960538 -0.0624345
vn 0.07269892 -0.9949622 -0.06903046
vn 0.08400866 -0.9948493 -0.05672275
vn 0.01636103 -0.9957651 -0.09046686
vn 0.05540246 -0.9921738 -0.1119004
vn 0.06169852 0.9978064 -0.02399322
vn -0.007489774 0.9896994 -0.1429647
vn 0.06036559 -0.9979002 -0.02347487
vn -0.006624282 -0.9919516 -0.1264441
vn 0.001883561 -0.9999744 -0.006897634
vn -0.001883561 -0.9999744 -0.006897634
vn -0.1314473 -0.9911405 0.01903177
vn 0.004586661 -0.9999566 -0.008113812
vn 0.1314473 -0.9911405 0.01903178
vn -0.004586661 -0.9999566 -0.008113812

usemtl g51_bird_1
f 9/9/3 8/8/3 7/7/3
f 14/12/7 13/11/7 12/11/7
f 3/22/17 1/24/17 25/23/17
f 3/22/18 25/23/18 26/25/18
f 1/24/19 27/26/19 25/23/19
f 28/29/20 4/28/20 3/27/20
f 29/31/24 16/32/24 6/30/24
f 30/35/25 1/34/25 2/33/25
f 5/37/29 15/38/29 31/36/29
f 32/39/30 16/32/30 29/31/30
f 31/36/31 15/41/31 33/40/31
f 42/52/46 43/53/46 44/54/46
f 47/11/50 48/11/50 49/12/50
f 25/23/60 36/24/60 38/22/60
f 26/25/61 25/23/61 38/22/61
f 25/23/62 27/26/62 36/24/62
f 38/27/63 39/28/63 58/29/63
f 41/30/67 51/32/67 59/31/67
f 37/59/68 36/34/68 60/35/68
f 61/36/72 50/38/72 40/60/72
f 59/31/73 51/32/73 32/39/73
f 33/40/74 50/38/74 61/36/74
f 57/63/87 62/62/87 51/32/87
f 62/62/88 32/39/88 51/32/88
f 16/32/89 62/62/89 24/63/89
f 16/32/90 32/39/90 62/62/90
f 23/65/91 63/64/91 15/41/91
f 63/64/92 33/40/92 15/41/92
f 50/38/93 63/64/93 56/66/93
f 50/38/94 33/40/94 63/64/94
f 55/15/95 54/16/95 57/67/95
f 24/67/96 19/16/96 20/15/96
f 24/67/97 62/68/97 19/16/97
f 62/68/98 22/17/98 19/16/98
f 54/16/99 62/68/99 57/67/99
f 54/16/100 22/17/100 62/68/100
f 39/28/101 65/69/101 64/69/101
f 39/28/102 37/28/102 65/69/102
f 67/69/103 66/69/103 4/28/103
f 66/69/102 2/28/102 4/28/102
f 10/10/104 11/10/104 67/69/104
f 11/10/105 66/69/105 67/69/105
f 64/69/106 46/10/106 45/10/106
f 64/69/107 65/69/107 46/10/107
f 41/30/108 64/69/108 43/70/108
f 41/30/109 39/28/109 64/69/109
f 43/72/110 45/10/110 44/71/110
f 43/72/111 64/69/111 45/10/111
f 44/74/112 47/11/112 68/73/112
f 44/74/113 45/10/113 47/11/113
f 8/70/114 67/69/114 6/30/114
f 67/69/115 4/28/115 6/30/115
f 9/71/116 67/69/116 8/70/116
f 9/71/117 10/10/117 67/69/117
f 69/73/118 12/11/118 9/75/118
f 12/11/119 10/10/119 9/75/119
f 70/76/120 12/11/120 69/73/120
f 70/76/121 14/12/121 12/11/121
f 14/79/122 70/78/122 13/77/122
f 70/78/123 69/80/123 13/77/123
f 13/83/124 9/82/124 11/81/124
f 13/83/125 69/84/125 9/82/125
f 11/81/126 9/86/126 66/85/126
f 9/86/127 7/87/127 66/85/127
f 66/85/128 5/60/128 2/88/128
f 66/85/129 7/89/129 5/60/129
f 37/88/130 40/60/130 65/85/130
f 40/60/131 42/89/131 65/85/131
f 65/85/132 44/86/132 46/81/132
f 65/85/133 42/90/133 44/86/133
f 46/92/134 44/91/134 48/83/134
f 44/91/135 68/84/135 48/83/135
f 49/12/136 71/76/136 47/11/136
f 71/76/137 68/73/137 47/11/137
f 49/79/138 48/93/138 71/78/138
f 48/93/139 68/94/139 71/78/139
f 18/97/140 21/96/140 63/95/140
f 63/95/141 21/96/141 53/97/141
f 17/21/142 18/97/142 23/20/142
f 18/97/143 63/95/143 23/20/143
f 56/20/144 53/97/144 52/21/144
f 56/20/145 63/95/145 53/97/145
f 4/4/1 2/2/1 1/1/1
f 1/1/1 3/3/1 4/4/1
f 8/8/2 6/6/2 5/5/2
f 5/5/2 7/7/2 8/8/2
f 13/11/6 11/10/5 10/10/4
f 10/10/4 12/11/5 13/11/6
f 16/14/8 15/13/8 5/5/8
f 5/5/8 6/6/8 16/14/8
f 19/16/11 18/16/10 17/15/9
f 17/15/9 20/15/10 19/16/11
f 19/16/12 22/17/12 21/17/12
f 21/17/12 18/16/12 19/16/12
f 24/19/13 23/18/13 15/13/13
f 15/13/13 16/14/13 24/19/13
f 20/21/14 17/21/15 23/20/14
f 23/20/14 24/20/16 20/21/14
f 6/30/21 4/28/22 28/29/21
f 28/29/21 29/31/23 6/30/21
f 5/37/27 31/36/26 30/35/27
f 30/35/27 2/33/28 5/37/27
f 34/25/33 28/42/34 3/22/33
f 3/22/33 26/25/32 34/25/33
f 32/39/37 29/31/36 28/29/35
f 28/29/35 34/43/36 32/39/37
f 35/44/38 27/45/40 1/34/38
f 1/34/38 30/35/39 35/44/38
f 31/36/41 33/40/42 35/44/41
f 35/44/41 30/35/43 31/36/41
f 37/47/44 39/49/44 38/48/44
f 38/48/44 36/46/44 37/47/44
f 41/51/45 43/53/45 42/52/45
f 42/52/45 40/50/45 41/51/45
f 46/10/48 48/11/49 47/11/48
f 47/11/48 45/10/47 46/10/48
f 51/56/51 41/51/51 40/50/51
f 40/50/51 50/55/51 51/56/51
f 53/16/53 54/16/54 55/15/53
f 55/15/53 52/15/52 53/16/53
f 22/17/55 54/16/55 53/16/55
f 53/16/55 21/17/55 22/17/55
f 56/57/56 57/58/56 51/56/56
f 51/56/56 50/55/56 56/57/56
f 55/21/57 57/20/59 56/20/57
f 56/20/57 52/21/58 55/21/57
f 41/30/64 59/31/66 58/29/64
f 58/29/64 39/28/65 41/30/64
f 40/60/70 37/59/71 60/35/70
f 60/35/70 61/36/69 40/60/70
f 34/25/76 26/25/75 38/22/76
f 38/22/76 58/42/77 34/25/76
f 59/31/79 32/39/80 34/43/79
f 34/43/79 58/29/78 59/31/79
f 35/44/81 60/35/82 36/61/81
f 36/61/81 27/45/83 35/44/81
f 33/40/85 61/36/84 60/35/86
f 60/35/86 35/44/84 33/40/85

