# WaveFront *.obj file (generated by CINEMA 4D)

mtllib ./Bird_A.mtl

v 10.87038230895996 0 -1.06533074378967
v 8.05973529815674 0 -0.91808372735977
v 3.03136491775513 -0.39412313699722 0.66654884815216
v 3.03136491775513 0.39412313699722 0.33091595768929
v 0 -0.13498310744762 -5.43230819702148
v 0 0.13498301804066 -5.43230819702148
v 0.89126855134964 -0.69246304035187 -2.57698655128479
v 0.90688163042068 -0.80967372655869 -0.42962223291397
v 0.89126855134964 0.69246280193329 -2.57698631286621
v 0.90688163042068 0.80967372655869 -0.42962196469307
v 0.60227197408676 0.13498301804066 -5.77276706695557
v 0.60227197408676 -0.13498310744762 -5.77276706695557
v 1.9121128320694 0 -7.75813388824463
v 0.95863997936249 0.12209301441908 -7.61434507369995
v 0.95863997936249 -0.12209301441908 -7.56281089782715
v 1.9121128320694 0 -7.78980875015259
v 0.71653658151627 0.30572319030762 -4.7243504524231
v 0.71653658151627 -0.30572319030762 -4.7243504524231
v 11.07610321044922 0 -0.53632164001465
v 7.59745931625366 -0.24774119257927 1.04965853691101
v 0 -0.11827195435762 -7.85498189926147
v 0 0.11827195435762 -7.85498189926147
v 7.59745931625366 0.24774111807346 0.82116776704788
v 4.65445423126221 -0.32153633236885 1.32967388629913
v 0 -0.72944337129593 2.69535636901855
v 0 0.56576061248779 1.7700697183609
v 0 -0.56576061248779 1.7700697183609
v 4.65445423126221 0.32153633236885 1.05834090709686
v 5.91009950637817 0 -1.9823796749115
v 4.00359725952148 0.10542197525501 -2.95701026916504
v 4.00359725952148 -0.10542197525501 -2.95701026916504
v 0 0.70257860422134 -3.32980537414551
v 0 -0.70257860422134 -3.32980537414551
v 0 0.93163019418716 0.4853150844574
v 0 -0.93163019418716 0.4853150844574
v 0.63679379224777 -0.56576061248779 1.56231713294983
v 1.60987544059753 -0.40306448936462 0.66639131307602
v 0.63679379224777 0.56576061248779 1.56231713294983
v 1.60987544059753 0.40306448936462 0.66639131307602
v 1.32814693450928 -0.23278647661209 -3.62812924385071
v 1.32814693450928 0.23278647661209 -3.62812924385071
v -10.87038230895996 0 -1.06533074378967
v -8.05973529815674 0 -0.91808372735977
v -3.03136491775513 -0.39412313699722 0.66654884815216
v -3.03136491775513 0.39412313699722 0.33091595768929
v -0.89126855134964 -0.69246304035187 -2.57698655128479
v -0.90688163042068 -0.80967372655869 -0.42962223291397
v -0.89126855134964 0.69246280193329 -2.57698631286621
v -0.90688163042068 0.80967372655869 -0.42962196469307
v -0.60227197408676 0.13498301804066 -5.77276706695557
v -0.60227197408676 -0.13498310744762 -5.77276706695557
v -1.9121128320694 0 -7.75813388824463
v -0.95863997936249 0.12209301441908 -7.61434507369995
v -0.95863997936249 -0.12209301441908 -7.56281089782715
v -1.9121128320694 0 -7.78980875015259
v -0.71653658151627 0.30572319030762 -4.7243504524231
v -0.71653658151627 -0.30572319030762 -4.7243504524231
v -11.07610321044922 0 -0.53632164001465
v -7.59745931625366 -0.24774119257927 1.04965853691101
v -7.59745931625366 0.24774111807346 0.82116776704788
v -4.65445423126221 -0.32153633236885 1.32967388629913
v -4.65445423126221 0.32153633236885 1.05834090709686
v -5.91009950637817 0 -1.9823796749115
v -4.00359725952148 0.10542197525501 -2.95701026916504
v -4.00359725952148 -0.10542197525501 -2.95701026916504
v -0.63679379224777 -0.56576061248779 1.56231713294983
v -1.60987544059753 -0.40306448936462 0.66639131307602
v -0.63679379224777 0.56576061248779 1.56231713294983
v -1.60987544059753 0.40306448936462 0.66639131307602
v -1.32814693450928 -0.23278647661209 -3.62812924385071
v -1.32814693450928 0.23278647661209 -3.62812924385071
# 71 vertices

vn 0 -0.98986142873764 -0.14203654229641
vn 0 -0.99207419157028 0.12565334141254
vn 0.3400467634201 -0.94030606746674 0.01387954689562
vn 0 0 0
vn 0.35010206699371 -0.92832499742508 -0.12506490945816
vn 0 -0.96176153421402 0.27388828992844
vn 0.22569309175014 -0.95436573028564 0.19557267427444
vn 0.29693755507469 0.94826209545136 -0.11237045377493
vn 0.39565512537956 0.91794282197952 0.02894802391529
vn -0.00000000190611 0.99680179357529 0.07991373538971
vn 0 0.98526602983475 -0.17102883756161
vn 0.22569309175014 0.95436573028564 0.19557270407677
vn 0 0.96176153421402 0.27388828992844
vn 0.57116425037384 -0.8142426609993 -0.10382844507694
vn 0.44827246665955 -0.8928279876709 0.04370324313641
vn 0.57116401195526 0.81424278020859 -0.1038284227252
vn 0.4482724070549 0.8928279876709 0.04370325058699
vn 0.4551836848259 0 -0.89039754867554
vn 0.35150235891342 0 -0.93618696928024
vn 0.31573361158371 0 -0.94884788990021
vn 0.35863628983498 0.39090874791145 0.84768533706665
vn 0.21947978436947 0.40855529904366 0.8859521150589
vn 0.17428719997406 0.40234163403511 0.89874643087387
vn 0.75037467479706 0 0.66101276874542
vn 0.78423029184341 0 0.62046980857849
vn 0.87175327539444 0 0.48994514346123
vn 0.25657823681831 0.56183707714081 0.78645199537277
vn -0.05673915892839 -0.98312485218048 -0.17391429841518
vn 0 -0.98471117019653 -0.17419491708279
vn 0.14388337731361 0.968590259552 -0.20280660688877
vn 0.1438834220171 -0.96859019994736 -0.20280665159225
vn -0.00000000023443 0.99422430992126 -0.10732186585665
vn 0.01337073370814 0.99879384040833 -0.04724476113915
vn 0.10251015424728 -0.99473196268082 0
vn 0.11699648946524 -0.99308669567108 0.00951733905822
vn 0.03621186688542 -0.99872213602066 -0.03525341302156
vn 0.83470624685287 0 0.55069541931152
vn 0.9941132068634 0 -0.10834620147943
vn 0.9941132068634 0 -0.10834619402885
vn 0.00000000010256 -0.99421745538712 -0.10738533735275
vn 0.04108066484332 0.99915516376495 0.0011357642943
vn 0.12968629598618 0.99138879776001 0.01815673708916
vn 0.9941132068634 0 -0.10834618657827
vn 0.26684257388115 -0.10079184174538 -0.95845502614975
vn 0.29153695702553 0 -0.95655953884125
vn 0.23927363753319 -0.20049791038036 -0.95002561807632
vn 0 0.99997621774673 -0.00689761340618
vn 0.21449141204357 0.38264372944832 0.89865297079086
vn -0.00011082393758 0 1
vn -0.12701377272606 0.99190098047256 0
vn -0.17142158746719 -0.20343960821629 -0.96396422386169
vn 0.87327706813812 0 -0.48722398281097
vn 0.87327706813812 0 -0.48722398281097
vn -0.36781018972397 0.36149445176125 0.85675984621048
vn -0.36695876717567 0.36302924156189 0.85647594928741
vn -0.36610615253448 0.36456289887428 0.85618931055069
vn 0.07604649662971 0.99483042955399 -0.06730051338673
vn 0.04516047611833 0.99730610847473 -0.0578019246459
vn 0.03077942319214 0.99807107448578 -0.05391439795494
vn -0.00301826559007 0.99921810626984 -0.03942105919123
vn 0.05619781464338 0.99369436502457 -0.0970219746232
vn 0.06024568527937 0.99518662691116 -0.07729190587997
vn 0.02713067270815 0.99062412977219 -0.13389465212822
vn 0.03328979760408 0.99466955661774 -0.09759213030338
vn 0.07970453798771 0.40253001451492 0.91193026304245
vn 0.08370301872492 0.38738092780113 0.91811209917068
vn 0.24330547451973 0 -0.96994972229004
vn 0.67733931541443 0 0.73567074537277
vn 0.67733931541443 0 0.73567074537277
vn 0.04174693673849 -0.99912732839584 0.00134294340387
vn 0 -0.99997621774673 -0.00689765019342
vn 0.02692157588899 -0.99681240320206 -0.07510167360306
vn 0.02440146915615 -0.99256640672684 -0.11923277378082
vn 0.03141284734011 -0.99560958147049 -0.08817448467016
vn 0.06036553904414 -0.99790024757385 -0.02347493171692
vn 0.02716898173094 0.99612241983414 -0.0836780294776
vn 0.06169848889112 0.99780642986298 -0.0239932667464
vn 0.05714928731322 -0.99498623609543 -0.08207534253597
vn 0.04455022513866 -0.99581605195999 -0.07978486269712
vn 0.07354782521725 -0.99551028013229 -0.05958214402199
vn 0.05654752627015 -0.99676668643951 -0.05708339437842
vn 0.03470007330179 -0.99808251857758 -0.0512562468648
vn 0.00628939969465 -0.99917870759964 -0.04003009200096
vn -0.34004673361778 -0.94030612707138 0.01387955341488
vn -0.35010206699371 -0.92832499742508 -0.12506490945816
vn -0.22569309175014 -0.95436573028564 0.19557267427444
vn -0.29693755507469 0.94826209545136 -0.11237045377493
vn -0.39565512537956 0.91794282197952 0.02894802391529
vn -0.22569309175014 0.95436573028564 0.19557270407677
vn -0.57116425037384 -0.8142426609993 -0.10382844507694
vn -0.44827246665955 -0.8928279876709 0.04370324313641
vn -0.57116401195526 0.81424278020859 -0.1038284227252
vn -0.4482724070549 0.8928279876709 0.04370325058699
vn -0.4551836848259 0 -0.89039754867554
vn -0.31573361158371 0 -0.94884788990021
vn -0.35150235891342 0 -0.93618696928024
vn -0.35863628983498 0.39090874791145 0.84768533706665
vn -0.17428719997406 0.40234163403511 0.89874643087387
vn -0.21947978436947 0.40855529904366 0.8859521150589
vn -0.75037467479706 0 0.66101276874542
vn -0.87175327539444 0 0.48994514346123
vn -0.78423029184341 0 0.62046980857849
vn -0.25657823681831 0.56183707714081 0.78645199537277
vn 0.05673915892839 -0.98312485218048 -0.17391429841518
vn -0.14388337731361 0.968590259552 -0.20280659198761
vn -0.1438834220171 -0.96859019994736 -0.20280665159225
vn -0.01337073277682 0.99879384040833 -0.04724475741386
vn -0.10251015424728 -0.99473196268082 0
vn -0.03621186688542 -0.99872213602066 -0.03525341302156
vn -0.11699648946524 -0.99308669567108 0.00951733905822
vn -0.83470624685287 0 0.55069541931152
vn -0.9941132068634 0 -0.10834620147943
vn -0.9941132068634 0 -0.10834619402885
vn -0.12968629598618 0.99138879776001 0.01815673708916
vn -0.04108066484332 0.99915516376495 0.0011357642943
vn -0.9941132068634 0 -0.10834618657827
vn -0.26684257388115 -0.10079184174538 -0.95845502614975
vn -0.29153695702553 0 -0.95655953884125
vn -0.23927363753319 -0.20049791038036 -0.95002561807632
vn -0.21449141204357 0.38264372944832 0.89865297079086
vn 0.00011082393758 0 1
vn 0.12701377272606 0.99190098047256 0
vn 0.17142158746719 -0.20343960821629 -0.96396422386169
vn -0.87327706813812 0 -0.48722398281097
vn 0.36781018972397 0.36149445176125 0.85675984621048
vn 0.36695876717567 0.36302924156189 0.85647594928741
vn 0.36610615253448 0.36456289887428 0.85618931055069
vn -0.07604649662971 0.99483042955399 -0.06730051338673
vn -0.03077942319214 0.99807107448578 -0.05391439795494
vn -0.04516047611833 0.99730610847473 -0.0578019246459
vn 0.00301826559007 0.99921810626984 -0.03942105919123
vn -0.05619781464338 0.99369436502457 -0.0970219746232
vn -0.06024568527937 0.99518662691116 -0.07729190587997
vn -0.02713067270815 0.99062412977219 -0.13389465212822
vn -0.03328979760408 0.99466955661774 -0.09759213030338
vn -0.07970453798771 0.40253001451492 0.91193026304245
vn -0.08370301872492 0.38738092780113 0.91811209917068
vn -0.24330547451973 0 -0.96994972229004
vn -0.67733931541443 0 0.73567074537277
vn -0.67733931541443 0 0.73567074537277
vn -0.04174693673849 -0.99912732839584 0.00134294340387
vn -0.02692157588899 -0.99681240320206 -0.07510167360306
vn -0.03141284734011 -0.99560958147049 -0.08817448467016
vn -0.02440146915615 -0.99256640672684 -0.11923277378082
vn -0.06036553904414 -0.99790024757385 -0.02347493171692
vn -0.02716898173094 0.99612241983414 -0.0836780294776
vn -0.06169848889112 0.99780642986298 -0.0239932667464
vn -0.05714928731322 -0.99498623609543 -0.08207534253597
vn -0.04455022513866 -0.99581605195999 -0.07978486269712
vn -0.05654752254486 -0.99676668643951 -0.05708339810371
vn -0.07354781776667 -0.99551028013229 -0.05958214402199
vn -0.00628939969465 -0.99917870759964 -0.04003009200096
vn -0.03470006585121 -0.99808251857758 -0.05125625059009
# 153 normals

vt 0.54365515708923 0.13413608074188 0
vt 0.54376554489136 0.23461318016052 0
vt 0.56754577159882 0.21034252643585 0
vt 0 1 0
vt 0.5671352148056 0.1538188457489 0
vt 0.54358899593353 0.26729595661163 0
vt 0.56054228544235 0.26188731193542 0
vt 0.59963965415955 0.82701694965363 0
vt 0.60607838630676 0.89081478118896 0
vt 0.58035331964493 0.92016971111298 0
vt 0.56987631320953 0.80687296390533 0
vt 0.18519780039787 0.67493748664856 0
vt 0.07801833748817 0.68798625469208 0
vt 0.18425054848194 0.58291500806808 0
vt 0.20564730465412 0.58521091938019 0
vt 0.58629989624023 0.12517964839935 0
vt 0.5862175822258 0.23805463314056 0
vt 0.61912268400192 0.79638111591339 0
vt 0.63117718696594 0.9255633354187 0
vt 0.48845520615578 0.64836472272873 0
vt 0.53961610794067 0.62206947803497 0
vt 0.5387202501297 0.62202906608582 0
vt 0.91971737146378 0.86375427246094 0
vt 0.81098258495331 0.92733669281006 0
vt 0.1815377920866 0.50489801168442 0
vt 0.27080649137497 0.58339738845825 0
vt 0.25979360938072 0.48679387569427 0
vt 0.60349947214127 0.953164935112 0
vt 0.58493137359619 0.76580333709717 0
vt 0.56044119596481 0.26185703277588 0
vt 0.55952352285385 0.09659337997437 0
vt 0.56455928087234 0.74736124277115 0
vt 0.57847112417221 0.73568451404572 0
vt 0.897780418396 0.38582158088684 0
vt 0.71807718276978 0.34133470058441 0
vt 0.63225317001343 0.54605847597122 0
vt 0.62834644317627 0.5742734670639 0
vt 0.63095921278 0.57439106702805 0
vt 0.55669158697128 0.06872403621674 0
vt 0.54338151216507 0.07761442661285 0
vt 0.71807718276978 0.66074752807617 0
vt 0.89886164665222 0.66636544466019 0
vt 0.897780418396 0.7052344083786 0
vt 0.63340282440186 0.54611074924469 0
vt 0.89669895172119 0.62543302774429 0
vt 0.89669901132584 0.62543302774429 0
vt 0.89886170625687 0.66636544466019 0
vt 0.70109468698502 0.63226652145386 0
vt 0.67443108558655 0.91548228263855 0
vt 0.60184526443481 0.60385024547577 0
vt 0.60383599996567 0.60394048690796 0
vt 0.72645533084869 0.93222212791443 0
vt 0.72645539045334 0.93222212791443 0
vt 0.69486558437347 0.81054282188416 0
vt 0.75643038749695 0.83509373664856 0
vt 0.69490641355515 0.81017827987671 0
vt 0.8256750702858 0.86094081401825 0
vt 0.75649881362915 0.83455491065979 0
vt 0.50163942575455 0.73509418964386 0
vt 0.43975156545639 0.69642835855484 0
vt 0.42974802851677 0.69803333282471 0
vt 0.49451041221619 0.73623907566071 0
vt 0.89886170625687 0.34695267677307 0
vt 0.70109468698502 0.31285357475281 0
vt 0.89669901132584 0.30602014064789 0
vt 0.91189122200012 0.1453971862793 0
vt 0.82567518949509 0.15791237354279 0
vt 0.8114914894104 0.22503328323364 0
vt 0.91971760988235 0.16072583198547 0
vt 0.91189110279083 0.84842562675476 0
vt 0.8112370967865 0.22467088699341 0
vt 0.82530128955841 0.15752780437469 0
vt 0.7572466135025 0.13209056854248 0
vt 0.72645550966263 0.22919368743896 0
vt 0.75687277317047 0.13180840015411 0
vt 0.69555270671844 0.10753190517426 0
vt 0.67406338453293 0.21216475963593 0
vt 0.58603811264038 0.23797786235809 0
vt 0.69522958993912 0.1073409318924 0
vt 0.72601759433746 0.2287495136261 0
# 80 texture coordinates

o Bird_1
usemtl g51_bird_1
f 8/3/3 35/2/2 33/1/1
f 33/1/1 7/5/5 8/3/3
f 36/7/7 27/6/6 35/2/2
f 35/2/2 8/3/3 36/7/7
f 34/10/10 10/9/9 9/8/8
f 9/8/8 32/11/11 34/10/10
f 38/14/12 10/13/9 34/12/10
f 34/12/10 26/12/13 38/15/12
f 8/3/3 7/5/5 40/16/14
f 40/16/14 37/17/15 8/3/3
f 10/9/9 39/19/17 41/18/16
f 31/22/20 30/21/19 29/20/18
f 23/24/23 20/24/22 19/23/21
f 25/26/26 36/25/25 38/14/24
f 26/12/27 25/26/27 38/14/27
f 25/26/29 27/27/29 36/25/28
f 38/28/12 39/19/17 10/9/9
f 41/18/16 17/29/30 9/8/8
f 37/17/15 36/30/7 8/3/3
f 7/5/5 18/31/31 40/16/14
f 9/8/8 17/29/30 32/11/11
f 33/1/1 18/31/31 7/5/5
f 11/33/33 6/32/32 17/29/30
f 6/32/32 32/11/11 17/29/30
f 41/18/16 9/8/8 10/9/9
f 12/35/36 16/34/35 13/34/34
f 13/34/37 11/35/37 12/35/37
f 17/38/38 18/37/39 12/36/38
f 18/31/31 5/40/40 12/39/36
f 18/31/31 33/1/1 5/40/40
f 13/43/42 14/42/41 11/41/33
f 12/36/38 11/44/43 17/38/38
f 15/47/44 21/46/45 22/45/44
f 22/45/44 14/42/46 15/47/44
f 14/42/41 6/48/32 11/41/33
f 14/42/41 22/45/47 6/48/32
f 39/19/48 3/49/48 4/49/48
f 39/19/49 37/19/49 3/49/49
f 13/43/50 16/43/50 15/47/50
f 15/47/51 14/42/51 13/43/51
f 40/50/52 18/37/52 17/38/52
f 17/38/52 41/51/53 40/50/52
f 4/49/55 24/53/55 28/52/54
f 4/49/55 3/49/56 24/53/55
f 41/18/59 4/49/58 30/54/57
f 41/18/59 39/19/60 4/49/58
f 30/56/57 28/52/62 29/55/61
f 30/56/57 4/49/58 28/52/62
f 29/58/61 23/24/64 2/57/63
f 29/58/61 28/52/62 23/24/64
f 23/24/23 28/52/66 24/53/65
f 24/53/65 20/24/22 23/24/23
f 31/22/20 40/50/67 41/51/67
f 41/51/67 30/21/19 31/22/20
f 38/61/24 36/60/25 37/59/68
f 37/59/68 39/62/69 38/61/24
f 12/35/36 5/64/40 15/63/70
f 12/35/36 15/63/70 16/34/35
f 5/64/40 21/65/71 15/63/70
f 20/68/74 2/67/73 1/66/72
f 19/69/75 20/68/74 1/66/72
f 1/70/76 2/57/63 23/24/64
f 19/23/77 1/70/76 23/24/64
f 29/73/78 2/72/73 20/71/74
f 24/74/79 29/73/78 20/71/74
f 3/77/81 31/76/80 29/75/78
f 37/78/83 40/16/82 3/77/81
f 40/16/82 31/79/80 3/77/81
f 3/77/81 29/75/78 24/80/79
f 35/2/2 47/3/84 33/1/1
f 46/5/85 33/1/1 47/3/84
f 27/6/6 66/7/86 35/2/2
f 47/3/84 35/2/2 66/7/86
f 49/9/88 34/10/10 48/8/87
f 32/11/11 48/8/87 34/10/10
f 49/13/88 68/14/89 34/12/10
f 26/12/13 34/12/10 68/15/89
f 46/5/85 47/3/84 70/16/90
f 67/17/91 70/16/90 47/3/84
f 69/19/93 49/9/88 71/18/92
f 64/21/96 65/22/95 63/20/94
f 59/24/99 60/24/98 58/23/97
f 66/25/102 25/26/101 68/14/100
f 25/26/103 26/12/103 68/14/103
f 27/27/29 25/26/29 66/25/104
f 69/19/93 68/28/89 49/9/88
f 56/29/105 71/18/92 48/8/87
f 66/30/86 67/17/91 47/3/84
f 57/31/106 46/5/85 70/16/90
f 56/29/105 48/8/87 32/11/11
f 57/31/106 33/1/1 46/5/85
f 6/32/32 50/33/107 56/29/105
f 32/11/11 6/32/32 56/29/105
f 48/8/87 71/18/92 49/9/88
f 55/34/110 51/35/109 52/34/108
f 50/35/111 52/34/111 51/35/111
f 57/37/113 56/38/112 51/36/112
f 5/40/40 57/31/106 51/39/109
f 33/1/1 57/31/106 5/40/40
f 53/42/115 52/43/114 50/41/107
f 50/44/116 51/36/112 56/38/112
f 21/46/118 54/47/117 22/45/117
f 53/42/119 22/45/117 54/47/117
f 6/48/32 53/42/115 50/41/107
f 22/45/47 53/42/115 6/48/32
f 44/49/120 69/19/120 45/49/120
f 67/19/121 69/19/121 44/49/121
f 55/43/122 52/43/122 54/47/122
f 53/42/123 54/47/123 52/43/123
f 57/37/124 70/50/124 56/38/124
f 71/51/124 56/38/124 70/50/124
f 61/53/126 45/49/126 62/52/125
f 44/49/127 45/49/126 61/53/126
f 45/49/130 71/18/129 64/54/128
f 69/19/131 71/18/129 45/49/130
f 62/52/133 64/56/128 63/55/132
f 45/49/130 64/56/128 62/52/133
f 60/24/135 63/58/132 43/57/134
f 62/52/133 63/58/132 60/24/135
f 62/52/137 60/24/98 61/53/136
f 59/24/99 61/53/136 60/24/98
f 70/50/138 65/22/95 71/51/138
f 64/21/96 71/51/138 65/22/95
f 66/60/102 68/61/100 67/59/139
f 69/62/140 67/59/139 68/61/100
f 5/64/40 51/35/109 54/63/141
f 54/63/141 51/35/109 55/34/110
f 21/65/71 5/64/40 54/63/141
f 43/67/144 59/68/143 42/66/142
f 59/68/143 58/69/145 42/66/142
f 43/57/134 42/70/146 60/24/135
f 42/70/146 58/23/147 60/24/135
f 43/72/144 63/73/148 59/71/143
f 63/73/148 61/74/149 59/71/143
f 65/76/151 44/77/150 63/75/148
f 70/16/153 67/78/152 44/77/150
f 65/79/151 70/16/153 44/77/150
f 63/75/148 44/77/150 61/80/149

