# WaveFront *.obj file (generated by CINEMA 4D)

mtllib ./Bird_B.mtl

v 1.32976424694061 -0.81861048936844 -2.08057403564453
v 1.38865196704864 -0.3797872364521 -1.62760329246521
v 1.39955008029938 -0.28603276610374 0.49459779262543
v 1.4013284444809 0.64011722803116 0.03148917481303
v 0 -0.21493391692638 -2.42543864250183
v 0 0.00103471323382 -2.5874240398407
v 0.89126855134964 -1.04003214836121 -1.15124607086182
v 0.90688163042068 -1.15724289417267 -0.42962223291397
v 0.89126855134964 1.29280948638916 -1.15124583244324
v 0.90688163042068 1.4100204706192 -0.42962196469307
v 0.60227197408676 -0.11102804541588 -2.63043808937073
v 0.60227197408676 -0.41921639442444 -2.36721611022949
v 1.02722358703613 -0.99598330259323 -2.25916218757629
v 0.52876234054565 -1.08456766605377 -2.51338601112366
v 0.52876234054565 -1.0923775434494 -2.20206904411316
v 0.9397901892662 -0.95885223150253 -2.16327857971191
v 0.71653658151627 0.29815390706062 -2.47584366798401
v 0.71653658151627 -0.19099348783493 -2.10896301269531
v 1.30911564826965 -1.11219120025635 -1.92058622837067
v 1.34385275840759 -0.57736468315125 -0.35536587238312
v 0 -1.26462948322296 -2.34911012649536
v 0 -1.07539820671082 -2.58002543449402
v 1.81006276607513 -0.33198133111 -0.49730256199837
v 1.47899174690247 -0.34658235311508 0.34613388776779
v 0 -0.38733494281769 1.59859311580658
v 0 1.02325618267059 0.92311644554138
v 0 -0.10826499760151 0.92311644554138
v 1.63046813011169 -0.11331762373447 -0.14253582060337
v 1.46450221538544 0.25461447238922 -1.30034375190735
v 1.37635135650635 0.51744544506073 -1.53126978874207
v 1.42215812206268 0.19350259006023 -1.83086967468262
v 0 1.35779523849487 -1.90406489372253
v 0 -1.31844806671143 -1.90406489372253
v 0 1.5868467092514 0.32796144485474
v 0 -1.03730666637421 0.21154928207397
v 0.63679379224777 -0.06103118136525 0.95987331867218
v 1.02931487560272 -0.00917037110776 0.66639131307602
v 0.63679379224777 0.56576061248779 1.03258061408997
v 1.10521388053894 0.86733758449554 0.1502668261528
v 1.32814693450928 -0.23278647661209 -1.9619824886322
v 1.18831837177277 0.62231582403183 -1.9619824886322
v -1.32976424694061 -0.81861048936844 -2.08057403564453
v -1.38865196704864 -0.3797872364521 -1.62760329246521
v -1.39955008029938 -0.28603276610374 0.49459779262543
v -1.4013284444809 0.64011722803116 0.03148917481303
v -0.89126855134964 -1.04003214836121 -1.15124607086182
v -0.90688163042068 -1.15724289417267 -0.42962223291397
v -0.89126855134964 1.29280948638916 -1.15124583244324
v -0.90688163042068 1.4100204706192 -0.42962196469307
v -0.60227197408676 -0.11102804541588 -2.63043808937073
v -0.60227197408676 -0.41921639442444 -2.36721611022949
v -1.02722358703613 -0.99598330259323 -2.25916218757629
v -0.52876234054565 -1.08456766605377 -2.51338601112366
v -0.52876234054565 -1.0923775434494 -2.20206904411316
v -0.9397901892662 -0.95885223150253 -2.16327857971191
v -0.71653658151627 0.29815390706062 -2.47584366798401
v -0.71653658151627 -0.19099348783493 -2.10896301269531
v -1.30911564826965 -1.11219120025635 -1.92058622837067
v -1.34385275840759 -0.57736468315125 -0.35536587238312
v -1.81006276607513 -0.33198133111 -0.49730256199837
v -1.47899174690247 -0.34658235311508 0.34613388776779
v -1.63046813011169 -0.11331762373447 -0.14253582060337
v -1.46450221538544 0.25461447238922 -1.30034375190735
v -1.37635135650635 0.51744544506073 -1.53126978874207
v -1.42215812206268 0.19350259006023 -1.83086967468262
v -0.63679379224777 -0.06103118136525 0.95987331867218
v -1.02931487560272 -0.00917037110776 0.66639131307602
v -0.63679379224777 0.56576061248779 1.03258061408997
v -1.10521388053894 0.86733758449554 0.1502668261528
v -1.32814693450928 -0.23278647661209 -1.9619824886322
v -1.18831837177277 0.62231582403183 -1.9619824886322
# 71 vertices

vn 0 -0.99128556251526 0.13173073530197
vn -0.03793689608574 -0.99057191610336 0.13163590431213
vn 0 0 0
vn 0.41134467720985 -0.8982390165329 -0.15479756891727
vn 0 -0.60805577039719 0.79389429092407
vn -0.00072282465408 -0.60805559158325 0.79389411211014
vn 0.43625655770302 -0.66327124834061 0.60807192325592
vn 0.34656253457069 -0.70250797271729 0.62159234285355
vn 0.10727145522833 0.98552590608597 -0.131268709898
vn 0.05738366395235 0.98524045944214 -0.16127090156078
vn 0 0.99124562740326 -0.13203054666519
vn 0 0.99477577209473 -0.10208429396152
vn 0.46196538209915 0.68055313825607 0.56871378421783
vn 0.5155001282692 0.69739884138107 0.4978900551796
vn 0.47046732902527 0.69247472286224 0.54693627357483
vn 0.3741549551487 0.673359811306 0.63764768838882
vn 0.82489883899689 -0.55487257242203 -0.10797347873449
vn 0.96551650762558 -0.22612747550011 0.12901249527931
vn 0.9044297337532 0.42349234223366 -0.05158518999815
vn 0.94011300802231 0.34085339307785 -0.00255125225522
vn 0.92999982833862 0.36631262302399 -0.03025564923882
vn 0.94558638334274 0.30219569802284 -0.12059906125069
vn 0.9287782907486 0.3137771487236 -0.19726821780205
vn 0.51132237911224 -0.8166338801384 0.26769116520882
vn 0.50658494234085 -0.83230257034302 0.22504235804081
vn 0.66720312833786 -0.08582941442728 0.73991441726685
vn 0.72589808702469 -0.07925304025412 0.68322104215622
vn 0.1534119695425 0.42678314447403 0.89124685525894
vn 0 0.43189576268196 0.90192353725433
vn 0.09022512286901 -0.92045867443085 -0.38028308749199
vn 0 -0.92422825098038 -0.381840467453
vn 0.48640269041061 0.71475231647491 0.50253510475159
vn 0.12007521092892 0.78619420528412 -0.60620176792145
vn 0.52168947458267 -0.61755615472794 0.58861231803894
vn 0.13086798787117 -0.6663743853569 -0.73404270410538
vn 0.11101852357388 -0.73352098464966 -0.6705384850502
vn 0.51740628480911 0.65012681484222 -0.5564404129982
vn 0.64204061031342 -0.51178163290024 -0.57084447145462
vn 0.5220935344696 -0.46208789944649 -0.71686339378357
vn -0.02423724345863 0.40216338634491 -0.91524702310562
vn -0.0000000001458 0.4022815823555 -0.91551601886749
vn -0.00099689944182 0.35367313027382 -0.93536853790283
vn 0 0.44983360171318 -0.89311236143112
vn 0.85924381017685 0.50168174505234 -0.10007713735104
vn 0.63747364282608 0.56734138727188 0.52129757404327
vn 0.69718211889267 0.5899715423584 0.4072722196579
vn 0.56687778234482 0.53502154350281 0.62641966342926
vn 0.95376658439636 -0.18748795986176 -0.23489917814732
vn 0.94888836145401 -0.18937380611897 -0.25248456001282
vn -0.28856071829796 -0.65051186084747 0.70254325866699
vn 0.38221389055252 -0.39475241303444 -0.835513651371
vn 0.46951487660408 -0.14026099443436 -0.87171250581741
vn 0.95832371711731 -0.18553899228573 -0.21723471581936
vn 0.39365315437317 -0.71101343631744 -0.58266377449036
vn 0.08690136671066 -0.99590361118317 -0.02498381212354
vn -0.01417383924127 -0.99958503246307 -0.02507616765797
vn -0.09151846915483 -0.11205810308456 -0.98947834968567
vn 0 -0.05988228693604 -0.9982054233551
vn 0.01682335324585 -0.05987381190062 -0.99806416034698
vn 0 -0.00687309959903 -0.99997639656067
vn 0.57419914007187 0.36527979373932 0.73271143436432
vn 0.58847564458847 0.36548399925232 0.72119200229645
vn 0.67553746700287 0.32551488280296 0.66158086061478
vn 0.72252023220062 0.30327168107033 0.62128156423569
vn 0.21921195089817 -0.82576489448547 0.51967149972916
vn 0.18708758056164 -0.98203426599503 -0.02463587746024
vn 0.14954806864262 -0.59327352046967 -0.79098796844482
vn 0.65929448604584 0.1078095510602 -0.74411553144455
vn 0.69509398937225 0.11366357654333 -0.70987665653229
vn 0.91287392377853 0.17743273079395 0.36766675114632
vn 0.90727466344833 0.18419156968594 0.37805569171906
vn 0.90207356214523 0.19394826889038 0.38554808497429
vn 0.8955739736557 0.1976056843996 0.398621737957
vn 0.60630530118942 0.79197871685028 -0.07185829430819
vn 0.5978866815567 0.79842859506607 -0.07101633399725
vn 0.58940041065216 0.80478811264038 -0.07016632705927
vn 0.92195796966553 0.38720515370369 -0.00810435786843
vn 0.95349228382111 0.29892215132713 -0.03870384022593
vn 0.92364794015884 0.154128074646 -0.35088315606117
vn 0.93376737833023 0.069460965693 -0.3510750234127
vn 0.81934976577759 0.56975424289703 0.06360872089863
vn 0.91719019412994 0.16458182036877 0.36287039518356
vn 0.50079041719437 -0.84623438119888 0.18192395567894
vn 0.62185454368591 0.10168728232384 -0.77650278806686
vn 0.87513440847397 0.38940146565437 -0.28723892569542
vn 0.60403627157211 -0.0918305143714 0.79164844751358
vn 0.82367020845413 0.23308022320271 0.51695358753204
vn -0.15913569927216 0.18900239467621 0.96899634599686
vn -0.15241983532906 0.15656635165215 0.97583562135696
vn -0.09252689033747 0.24676191806793 0.96464884281158
vn -0.1718553006649 0.25238141417503 0.95224440097809
vn -0.28820753097534 0.06944611668587 0.95504641532898
vn -0.99418705701828 0.10744469612837 -0.00690581509843
vn -0.99062049388886 0.13594642281532 -0.01377028040588
vn -0.98859429359436 0.14950446784496 0.01815920509398
vn -0.99759316444397 0.06932131946087 -0.00154698675033
vn 0.90681272745132 0.23767451941967 -0.348140001297
vn 0.95390671491623 -0.19253852963448 -0.23019747436047
vn -0.98057168722153 0.19133174419403 0.04325877502561
vn -0.96168047189713 0.25470596551895 0.10146673768759
vn 0.96230095624924 -0.26808151602745 -0.04592574760318
vn 0.97071850299835 -0.23696227371693 -0.03942679986358
vn -0.59885823726654 -0.80085504055023 0.00004795326458
vn 0.97808623313904 -0.20558676123619 -0.03288521617651
vn -0.80150008201599 -0.56395751237869 -0.19887064397335
vn 0.03793689608574 -0.99057191610336 0.13163590431213
vn -0.41134467720985 -0.8982390165329 -0.15479756891727
vn 0.00072282465408 -0.60805559158325 0.79389411211014
vn -0.43625655770302 -0.66327124834061 0.60807192325592
vn -0.34656253457069 -0.70250797271729 0.62159234285355
vn -0.10727145522833 0.98552590608597 -0.131268709898
vn -0.05738366395235 0.98524045944214 -0.16127090156078
vn -0.46196538209915 0.68055313825607 0.56871378421783
vn -0.47046732902527 0.69247472286224 0.54693627357483
vn -0.5155001282692 0.69739884138107 0.4978900551796
vn -0.3741549551487 0.673359811306 0.63764768838882
vn -0.82489883899689 -0.55487257242203 -0.10797347873449
vn -0.96551650762558 -0.22612747550011 0.12901249527931
vn -0.9044297337532 0.42349234223366 -0.05158518999815
vn -0.94011300802231 0.34085339307785 -0.00255125225522
vn -0.92999982833862 0.36631262302399 -0.03025564923882
vn -0.9287782907486 0.3137771487236 -0.19726821780205
vn -0.94558638334274 0.30219569802284 -0.12059906125069
vn -0.51132237911224 -0.8166338801384 0.26769116520882
vn -0.50658494234085 -0.83230257034302 0.22504235804081
vn -0.66720312833786 -0.08582941442728 0.73991441726685
vn -0.72589808702469 -0.07925304025412 0.68322104215622
vn -0.1534119695425 0.42678314447403 0.89124685525894
vn -0.09022512286901 -0.92045867443085 -0.38028308749199
vn -0.48640269041061 0.71475231647491 0.50253510475159
vn -0.12007521092892 0.78619420528412 -0.60620176792145
vn -0.52168947458267 -0.61755615472794 0.58861231803894
vn -0.13086798787117 -0.6663743853569 -0.73404270410538
vn -0.11101852357388 -0.73352098464966 -0.6705384850502
vn -0.51740628480911 0.65012681484222 -0.5564404129982
vn -0.64204061031342 -0.51178163290024 -0.57084447145462
vn -0.5220935344696 -0.46208789944649 -0.71686339378357
vn 0.02423724345863 0.40216338634491 -0.91524702310562
vn 0.00099689944182 0.35367313027382 -0.93536853790283
vn -0.85924381017685 0.50168174505234 -0.10007713735104
vn -0.63747364282608 0.56734138727188 0.52129757404327
vn -0.69718211889267 0.5899715423584 0.4072722196579
vn -0.56687778234482 0.53502154350281 0.62641966342926
vn -0.95376658439636 -0.18748795986176 -0.23489917814732
vn -0.94888836145401 -0.18937380611897 -0.25248456001282
vn 0.28856071829796 -0.65051186084747 0.70254325866699
vn -0.38221389055252 -0.39475241303444 -0.835513651371
vn -0.46951487660408 -0.14026099443436 -0.87171250581741
vn -0.95832371711731 -0.18553899228573 -0.21723471581936
vn -0.39365315437317 -0.71101343631744 -0.58266377449036
vn -0.08690136671066 -0.99590361118317 -0.02498381212354
vn 0.01417383924127 -0.99958503246307 -0.02507616765797
vn 0.09151846915483 -0.11205810308456 -0.98947834968567
vn -0.01682335324585 -0.05987381190062 -0.99806416034698
vn -0.57419914007187 0.36527979373932 0.73271143436432
vn -0.67553746700287 0.32551488280296 0.66158086061478
vn -0.58847564458847 0.36548399925232 0.72119200229645
vn -0.72252023220062 0.30327168107033 0.62128156423569
vn -0.21921195089817 -0.82576489448547 0.51967149972916
vn -0.18708758056164 -0.98203426599503 -0.02463587746024
vn -0.14954806864262 -0.59327352046967 -0.79098796844482
vn -0.65929448604584 0.1078095510602 -0.74411553144455
vn -0.69509398937225 0.11366357654333 -0.70987665653229
vn -0.91287392377853 0.17743273079395 0.36766675114632
vn -0.90207356214523 0.19394826889038 0.38554808497429
vn -0.90727466344833 0.18419156968594 0.37805569171906
vn -0.8955739736557 0.1976056843996 0.398621737957
vn -0.60630530118942 0.79197871685028 -0.07185829430819
vn -0.5978866815567 0.79842859506607 -0.07101633399725
vn -0.58940041065216 0.80478811264038 -0.07016632705927
vn -0.92195796966553 0.38720515370369 -0.00810435786843
vn -0.95349228382111 0.29892215132713 -0.03870384022593
vn -0.92364794015884 0.154128074646 -0.35088315606117
vn -0.93376737833023 0.069460965693 -0.3510750234127
vn -0.81934976577759 0.56975424289703 0.06360872089863
vn -0.91719019412994 0.16458182036877 0.36287039518356
vn -0.50079041719437 -0.84623438119888 0.18192395567894
vn -0.62185454368591 0.10168728232384 -0.77650278806686
vn -0.87513440847397 0.38940146565437 -0.28723892569542
vn -0.60403627157211 -0.0918305143714 0.79164844751358
vn -0.82367020845413 0.23308022320271 0.51695358753204
vn 0.15913569927216 0.18900239467621 0.96899634599686
vn 0.09252689033747 0.24676191806793 0.96464884281158
vn 0.15241983532906 0.15656635165215 0.97583562135696
vn 0.1718553006649 0.25238141417503 0.95224440097809
vn 0.28820753097534 0.06944611668587 0.95504641532898
vn 0.99418705701828 0.10744469612837 -0.00690581509843
vn 0.98859429359436 0.14950446784496 0.01815920509398
vn 0.99062049388886 0.13594642281532 -0.01377028040588
vn 0.99759316444397 0.06932131946087 -0.00154698675033
vn -0.90681272745132 0.23767451941967 -0.348140001297
vn -0.95390671491623 -0.19253852963448 -0.23019747436047
vn 0.98057168722153 0.19133174419403 0.04325877502561
vn 0.96168047189713 0.25470596551895 0.10146673768759
vn -0.96230095624924 -0.26808151602745 -0.04592574760318
vn -0.97071850299835 -0.2369621694088 -0.039426792413
vn 0.59885823726654 -0.80085504055023 0.00004795326458
vn -0.97808623313904 -0.2055865675211 -0.03288519382477
vn 0.80150014162064 -0.5639573931694 -0.19887062907219
# 199 normals

vt 0.54365515708923 0.13413608074188 0
vt 0.54376554489136 0.23461318016052 0
vt 0.56754577159882 0.21034252643585 0
vt 0 1 0
vt 0.5671352148056 0.1538188457489 0
vt 0.54358899593353 0.26729595661163 0
vt 0.56054228544235 0.26188731193542 0
vt 0.59963965415955 0.82701694965363 0
vt 0.60607838630676 0.89081478118896 0
vt 0.58035331964493 0.92016971111298 0
vt 0.56987631320953 0.80687296390533 0
vt 0.18519780039787 0.67493748664856 0
vt 0.07801833748817 0.68798625469208 0
vt 0.18425054848194 0.58291500806808 0
vt 0.20564730465412 0.58521091938019 0
vt 0.58629989624023 0.12517964839935 0
vt 0.5862175822258 0.23805463314056 0
vt 0.61912268400192 0.79638111591339 0
vt 0.63117718696594 0.9255633354187 0
vt 0.48845520615578 0.64836472272873 0
vt 0.53961610794067 0.62206947803497 0
vt 0.5387202501297 0.62202906608582 0
vt 0.91971737146378 0.86375427246094 0
vt 0.81098258495331 0.92733669281006 0
vt 0.1815377920866 0.50489801168442 0
vt 0.27080649137497 0.58339738845825 0
vt 0.25979360938072 0.48679387569427 0
vt 0.60349947214127 0.953164935112 0
vt 0.58493137359619 0.76580333709717 0
vt 0.56044119596481 0.26185703277588 0
vt 0.55952352285385 0.09659337997437 0
vt 0.56455928087234 0.74736124277115 0
vt 0.57847112417221 0.73568451404572 0
vt 0.897780418396 0.38582158088684 0
vt 0.71807718276978 0.34133470058441 0
vt 0.63225317001343 0.54605847597122 0
vt 0.62834644317627 0.5742734670639 0
vt 0.63095921278 0.57439106702805 0
vt 0.55669158697128 0.06872403621674 0
vt 0.54338151216507 0.07761442661285 0
vt 0.71807718276978 0.66074752807617 0
vt 0.89886164665222 0.66636544466019 0
vt 0.897780418396 0.7052344083786 0
vt 0.63340282440186 0.54611074924469 0
vt 0.89669895172119 0.62543302774429 0
vt 0.89669901132584 0.62543302774429 0
vt 0.89886170625687 0.66636544466019 0
vt 0.70109468698502 0.63226652145386 0
vt 0.67443108558655 0.91548228263855 0
vt 0.60184526443481 0.60385024547577 0
vt 0.60383599996567 0.60394048690796 0
vt 0.72645533084869 0.93222212791443 0
vt 0.72645539045334 0.93222212791443 0
vt 0.69486558437347 0.81054282188416 0
vt 0.75643038749695 0.83509373664856 0
vt 0.69490641355515 0.81017827987671 0
vt 0.8256750702858 0.86094081401825 0
vt 0.75649881362915 0.83455491065979 0
vt 0.50163942575455 0.73509418964386 0
vt 0.43975156545639 0.69642835855484 0
vt 0.42974802851677 0.69803333282471 0
vt 0.49451041221619 0.73623907566071 0
vt 0.89886170625687 0.34695267677307 0
vt 0.70109468698502 0.31285357475281 0
vt 0.89669901132584 0.30602014064789 0
vt 0.91189122200012 0.1453971862793 0
vt 0.82567518949509 0.15791237354279 0
vt 0.8114914894104 0.22503328323364 0
vt 0.91971760988235 0.16072583198547 0
vt 0.91189110279083 0.84842562675476 0
vt 0.8112370967865 0.22467088699341 0
vt 0.82530128955841 0.15752780437469 0
vt 0.7572466135025 0.13209056854248 0
vt 0.72645550966263 0.22919368743896 0
vt 0.75687277317047 0.13180840015411 0
vt 0.69555270671844 0.10753190517426 0
vt 0.67406338453293 0.21216475963593 0
vt 0.58603811264038 0.23797786235809 0
vt 0.69522958993912 0.1073409318924 0
vt 0.72601759433746 0.2287495136261 0
# 80 texture coordinates

o Bird_1
usemtl g51_bird_1
f 8/3/2 35/2/1 33/1/1
f 33/1/4 7/5/4 8/3/4
f 36/7/6 27/6/5 35/2/5
f 35/2/8 8/3/7 36/7/7
f 34/10/11 10/9/10 9/8/9
f 9/8/9 32/11/12 34/10/11
f 38/14/15 10/13/14 34/12/13
f 34/12/13 26/12/16 38/15/15
f 8/3/17 7/5/17 40/16/17
f 40/16/18 37/17/18 8/3/18
f 10/9/19 39/19/20 41/18/19
f 31/22/23 30/21/22 29/20/21
f 23/24/25 20/24/25 19/23/24
f 25/26/27 36/25/26 38/14/26
f 26/12/29 25/26/29 38/14/28
f 25/26/31 27/27/31 36/25/30
f 38/28/15 39/19/32 10/9/14
f 41/18/33 17/29/33 9/8/33
f 37/17/34 36/30/7 8/3/7
f 7/5/36 18/31/35 40/16/35
f 9/8/37 17/29/37 32/11/37
f 33/1/39 18/31/39 7/5/38
f 11/33/42 6/32/41 17/29/40
f 6/32/41 32/11/43 17/29/40
f 41/18/19 9/8/44 10/9/19
f 12/35/45 16/34/46 13/34/45
f 13/34/45 11/35/47 12/35/45
f 17/38/48 18/37/49 12/36/48
f 18/31/50 5/40/50 12/39/50
f 18/31/39 33/1/39 5/40/51
f 13/43/52 14/42/52 11/41/52
f 12/36/48 11/44/53 17/38/48
f 15/47/54 21/46/54 22/45/54
f 22/45/56 14/42/55 15/47/55
f 14/42/59 6/48/58 11/41/57
f 14/42/59 22/45/60 6/48/58
f 39/19/63 3/49/62 4/49/61
f 39/19/63 37/19/64 3/49/62
f 13/43/65 16/43/65 15/47/65
f 15/47/55 14/42/55 13/43/66
f 40/50/35 18/37/35 17/38/67
f 17/38/69 41/51/68 40/50/68
f 4/49/72 24/53/71 28/52/70
f 4/49/72 3/49/73 24/53/71
f 41/18/75 4/49/75 30/54/74
f 41/18/75 39/19/76 4/49/75
f 30/56/22 28/52/77 29/55/21
f 30/56/22 4/49/78 28/52/77
f 29/58/80 23/24/79 2/57/79
f 29/58/21 28/52/77 23/24/81
f 23/24/82 28/52/70 24/53/71
f 24/53/83 20/24/25 23/24/25
f 31/22/84 40/50/68 41/51/68
f 41/51/85 30/21/22 31/22/23
f 38/61/26 36/60/26 37/59/86
f 37/59/64 39/62/63 38/61/87
f 12/35/90 5/64/89 15/63/88
f 12/35/90 15/63/88 16/34/91
f 5/64/89 21/65/92 15/63/88
f 20/68/95 2/67/94 1/66/93
f 19/69/96 20/68/95 1/66/93
f 1/70/97 2/57/79 23/24/79
f 19/23/98 1/70/98 23/24/98
f 29/73/99 2/72/94 20/71/95
f 24/74/100 29/73/99 20/71/95
f 3/77/102 31/76/102 29/75/101
f 37/78/103 40/16/103 3/77/103
f 40/16/104 31/79/102 3/77/102
f 3/77/105 29/75/105 24/80/105
f 35/2/1 47/3/106 33/1/1
f 46/5/107 33/1/107 47/3/107
f 27/6/5 66/7/108 35/2/5
f 47/3/109 35/2/110 66/7/109
f 49/9/112 34/10/11 48/8/111
f 32/11/12 48/8/111 34/10/11
f 49/13/115 68/14/114 34/12/113
f 26/12/116 34/12/113 68/15/114
f 46/5/117 47/3/117 70/16/117
f 67/17/118 70/16/118 47/3/118
f 69/19/120 49/9/119 71/18/119
f 64/21/123 65/22/122 63/20/121
f 59/24/125 60/24/125 58/23/124
f 66/25/126 25/26/127 68/14/126
f 25/26/29 26/12/29 68/14/128
f 27/27/31 25/26/31 66/25/129
f 69/19/130 68/28/114 49/9/115
f 56/29/131 71/18/131 48/8/131
f 66/30/109 67/17/132 47/3/109
f 57/31/133 46/5/134 70/16/133
f 56/29/135 48/8/135 32/11/135
f 57/31/137 33/1/137 46/5/136
f 6/32/41 50/33/139 56/29/138
f 32/11/43 6/32/41 56/29/138
f 48/8/140 71/18/119 49/9/119
f 55/34/142 51/35/141 52/34/141
f 50/35/143 52/34/141 51/35/141
f 57/37/145 56/38/144 51/36/144
f 5/40/146 57/31/146 51/39/146
f 33/1/137 57/31/137 5/40/147
f 53/42/148 52/43/148 50/41/148
f 50/44/149 51/36/144 56/38/144
f 21/46/150 54/47/150 22/45/150
f 53/42/151 22/45/152 54/47/151
f 6/48/58 53/42/154 50/41/153
f 22/45/60 53/42/154 6/48/58
f 44/49/157 69/19/156 45/49/155
f 67/19/158 69/19/156 44/49/157
f 55/43/159 52/43/159 54/47/159
f 53/42/151 54/47/151 52/43/160
f 57/37/133 70/50/133 56/38/161
f 71/51/162 56/38/163 70/50/162
f 61/53/166 45/49/165 62/52/164
f 44/49/167 45/49/165 61/53/166
f 45/49/169 71/18/169 64/54/168
f 69/19/170 71/18/169 45/49/169
f 62/52/171 64/56/123 63/55/121
f 45/49/172 64/56/123 62/52/171
f 60/24/173 63/58/174 43/57/173
f 62/52/171 63/58/121 60/24/175
f 62/52/164 60/24/176 61/53/166
f 59/24/125 61/53/177 60/24/125
f 70/50/162 65/22/178 71/51/162
f 64/21/123 71/51/179 65/22/122
f 66/60/126 68/61/126 67/59/180
f 69/62/156 67/59/158 68/61/181
f 5/64/184 51/35/183 54/63/182
f 54/63/182 51/35/183 55/34/185
f 21/65/186 5/64/184 54/63/182
f 43/67/189 59/68/188 42/66/187
f 59/68/188 58/69/190 42/66/187
f 43/57/173 42/70/191 60/24/173
f 42/70/192 58/23/192 60/24/192
f 43/72/189 63/73/193 59/71/188
f 63/73/193 61/74/194 59/71/188
f 65/76/196 44/77/196 63/75/195
f 70/16/197 67/78/197 44/77/197
f 65/79/196 70/16/198 44/77/196
f 63/75/199 44/77/199 61/80/199

