# ProBuilder 4.1.0
# https://unity3d.com/unity/features/worldbuilding/probuilder
# 17.03.2020 22:09:34

mtllib ./BirdCircle.mtl
o BirdCircle

g BirdCircle
v -0.9667967 0 -0.9040806
v -0.8661069 -0.2393077 -1.118753
v -0.8359334 0.2100369 -0.9436368
v -0.9691226 0 -0.4141227
v -0.9807522 0.09546864 -0.2969021
v -0.9883425 -0.09546867 -0.2088516
v -0.2453926 0.5935843 0.3017984
v 0 0.2584706 0.8740356
v -0.2453926 0.1799976 0.4399144
v 0 0.6189431 0.3777349
v 0 0.2053563 0.5158509
v 0 -0.6362665 0.4815873
v 0.866107 -0.2393077 -1.118711
v 0.9667968 0 -0.8448959
v 0.8359336 0.2100369 -0.9436368
v 0.9807525 0.09546864 -0.2969021
v 0.9691229 0 -0.4141227
v 0.9883426 -0.09546867 -0.2088516
v 0.2453926 0.5935843 0.3017984
v 0.2453926 0.1799976 0.4399144
v 0.2320894 -0.5246072 -1.819403
v 0.2276759 -0.2378574 -1.641295
v 0 -0.395859 -1.794167
v -0.2276759 -0.2378574 -1.641295
v -0.2320894 -0.5246072 -1.819403
v -0.2320894 -0.5446177 -1.717312
v -0.276122 -0.3804249 -1.523152
v 0 -0.4158696 -1.692077
v 0.276122 -0.3804249 -1.523152
v 0.2320894 -0.5446177 -1.717312
v 0.736845 -1.2854 -1.915518
v 0.3694181 -1.202487 -1.94721
v -0.736845 -1.2854 -1.915518
v -0.3694181 -1.202487 -1.94721
v 0.5661573 0.5977932 0.217598
v 0.8006893 0.3672835 0.02112764
v 0.878374 -0.479511 -0.008923829
v 0.7187288 -0.6349427 0.1048609
v -0.8006892 0.3672835 0.02112764
v -0.5584155 0.5977932 0.217598
v -0.8783739 -0.479511 -0.008923829
v -0.7131248 -0.6349427 0.1048609
v -0.736845 -1.297379 -1.917865
v -0.3694181 -1.220587 -1.854869
v 0.736845 -1.297379 -1.917865
v 0.3694181 -1.220587 -1.854869
v 0 -1.330791 -1.87797
v 0 -1.313258 -1.967422
v -0.6778224 0.2977303 -1.08197
v -0.3494727 0.7821358 -0.1627951
v -0.3434561 0.5878114 -0.9913398
v -0.6421565 -0.4237881 -1.245298
v -0.420686 -0.7070557 0.2031811
v -0.3606289 -0.7025086 -0.9719017
v 0 0.8436265 -0.2462116
v 0.6754283 0.2977303 -1.081921
v 0.3494727 0.7821358 -0.1627951
v 0.3434561 0.5878114 -0.9913398
v 0.6397625 -0.4237881 -1.245249
v 0.420686 -0.7070557 0.2031811
v 0.3606289 -0.7025086 -0.9719017
v 0 -0.7889047 -1.321183
v -0.9608846 -0.2740597 -0.1110012
v -0.9981962 0 -0.7176841
v -0.9885052 0 -0.6179798
v 0.9608847 -0.2740597 -0.1110012
v 0.9981964 0 -0.7176841
v 0.9885052 0 -0.6179798
v 0 0.8013124 -0.9952077
v 0 0.2833754 -1.524947
v 0 -0.8060024 -0.02000719
v 0.8965387 0.2512729 -0.1384323
v -0.8965386 0.2512729 -0.1384323

vt 0.7712412 0.8255045
vt 0.6629527 0.8112512
vt 0.9320484 0.8235126
vt 0.8180495 0.8978018
vt 0.2056473 0.5852109
vt 0.2897248 0.6057814
vt 0.221127 0.5086969
vt 0.204842 0.6443155
vt 0.5437656 0.2346132
vt 0.5604412 0.261857
vt 0.543589 0.2672959
vt 0.5605423 0.2618873
vt 0.5784711 0.7356845
vt 0.5849314 0.7658033
vt 0.5645593 0.7473612
vt 0.5560737 0.06867802
vt 0.559297 0.09656465
vt 0.5433815 0.07761437
vt 0.5595235 0.09659338
vt 0.5566916 0.06872404
vt 0.8977803 0.6628358
vt 0.7180771 0.6183489
vt 0.8988616 0.6239668
vt 0.635609 0.9317092
vt 0.6712998 0.9516714
vt 0.8977803 0.1455628
vt 0.7180771 0.1010758
vt 0.8988616 0.1066937
vt 0.8966989 0.5830344
vt 0.6191227 0.7963811
vt 0.6060784 0.8908148
vt 0.6311772 0.9255633
vt 0.5996397 0.8270169
vt 0.5857763 0.1250259
vt 0.5675458 0.2103425
vt 0.5671352 0.1538188
vt 0.5858585 0.2379009
vt 0.5862999 0.1251796
vt 0.5862176 0.2380546
vt 0.5436552 0.1341361
vt 0.5936406 0.8180891
vt 0.7470386 0.9310244
vt 0.8176479 0.8379431
vt 0.9212255 0.8092016
vt 0.5670985 0.6734298
vt 0.5234155 0.7540243
vt 0.5678637 0.7540243
vt 0.4797325 0.6734298
vt 0.4789673 0.7540243
vt 0.5234155 0.7883636
vt 0.5234155 0.6451752
vt 0.5234155 0.6734298
vt 0.5462396 0.8765824
vt 0.5454875 0.7731449
vt 0.5025555 0.8765824
vt 0.4596235 0.7731449
vt 0.4588714 0.8765824
vt 0.5025555 0.9206546
vt 0.5025555 0.7368819
vt 0.6034995 0.9531649
vt 0.5360333 0.9390073
vt 0.5615307 0.8193305
vt 0.5450698 0.8043817
vt 0.5585382 0.8191953
vt 0.542938 0.8042853
vt 0.5795193 0.8191708
vt 0.598112 0.80432
vt 0.5825117 0.8193061
vt 0.59598 0.8042236
vt 0.5698763 0.806873
vt 0.7010946 0.5898679
vt 0.7010946 0.07259475
vt 0.8966989 0.06576125
vt 0.5964303 0.7325922
vt 0.5796323 0.714313
vt 0.5976617 0.7326479
vt 0.5812494 0.714386
vt 0.5788307 0.6968757
vt 0.5781168 0.6968434
vt 0.5614176 0.7144092
vt 0.5629331 0.6968942
vt 0.5598006 0.7143361
vt 0.5622191 0.696862
vt 0.5433883 0.732654
vt 0.5446196 0.7327096

vn -0.6867789 0.3035111 -0.6604663
vn -0.9954464 -0.004340873 -0.09522392
vn -0.8717533 0.1551908 0.4647171
vn -0.2565785 0.7820171 0.5679937
vn 0.05673923 -0.98759 0.146447
vn 0 -0.98759 0.146447
vn -0.4170896 -0.07916508 0.9054111
vn -0.3959783 -0.1117235 0.9114379
vn -0.2917231 -0.0389083 0.9557112
vn 0.8111353 0.2588144 -0.5244756
vn 0.9954464 -0.004341324 -0.09522355
vn 0.8717533 0.1551908 0.4647171
vn 0.2565785 0.7820171 0.5679937
vn -0.05673923 -0.98759 0.146447
vn 0.3941348 -0.1122762 0.9121687
vn 0.4170896 -0.07916508 0.9054111
vn 0.2917231 -0.03890831 0.9557112
vn 0.1977408 0.5194069 -0.8313333
vn -0.1977408 0.5194069 -0.8313333
vn 0.3114562 -0.6895988 0.6537955
vn -0.3114562 -0.6895988 0.6537955
vn 0.1307996 0.2092096 -0.9690835
vn -0.1307996 0.2092096 -0.9690835
vn -0.1289104 0.1999986 -0.9712789
vn 0.07408038 -0.5443665 -0.83557
vn 0.6612552 0.0340688 0.749387
vn 0.5819172 -0.002351539 0.8132446
vn -0.6479709 0.03243889 0.760974
vn -0.569481 -0.003703504 0.8219962
vn -0.1170122 -0.1816672 0.9763735
vn -0.6408358 0.2415824 0.7286752
vn -0.131447 -0.1719669 0.9762936
vn 0.6408358 0.2415824 0.7286752
vn 0.1170122 -0.1816672 0.9763735
vn 0.131447 -0.1719669 0.9762936
vn 0.0750699 -0.5482601 -0.8329318
vn 0.2316021 -0.9546452 -0.1871179
vn -0.291537 -0.9386975 -0.1839926
vn -0.6360686 0.2369182 0.7343613
vn -0.8347064 0.5404121 0.1059247
vn -0.6816643 0.7190238 -0.1354202
vn -0.7420198 0.6649227 -0.08534864
vn -0.6151215 0.7665982 -0.1842625
vn -0.4532264 -0.8853267 -0.1038387
vn -0.6842794 -0.7282401 -0.03779076
vn -0.1848167 -0.9694412 -0.1613278
vn -0.1203219 0.9205456 0.3716428
vn -0.133856 0.9228564 0.3611353
vn -0.1980669 0.9222175 0.3320909
vn -0.2288219 -0.5380715 -0.8112457
vn -0.2006866 -0.9613622 -0.1884345
vn -0.1270183 0.1907687 -0.9733826
vn 0.291537 -0.9386975 -0.1839926
vn 0.6360686 0.2369182 0.7343613
vn 0.8347064 0.5404121 0.1059247
vn 0.6790619 0.72079 -0.1390567
vn 0.6178755 0.7644943 -0.1837891
vn 0.7350503 0.6715681 -0.09325985
vn 0.453376 -0.8851678 -0.1045376
vn 0.1811502 -0.9699713 -0.1622969
vn 0.6872304 -0.7254485 -0.03793078
vn 0.1338559 0.9228564 0.3611354
vn 0.1195389 0.9206943 0.3715272
vn 0.1980668 0.9222175 0.3320909
vn 0.464377 -0.6244352 -0.6280403
vn -0.464377 -0.6244352 -0.6280403
vn 0.3467389 -0.1772872 0.9210545
vn 0.4429925 -0.1484185 0.8841547
vn -0.4456805 -0.1475648 0.8829459
vn -0.3523723 -0.1756849 0.9192218
vn 0.6297993 -0.7609625 -0.1558493
vn 0.6764685 -0.7182229 -0.1629301
vn -0.680379 -0.7146853 -0.1622014
vn -0.6191282 -0.7702404 -0.1530029
vn -0.9459439 -0.3086556 -0.09960867
vn -0.9053112 -0.4129581 -0.09938407
vn -0.7017782 -0.7025181 -0.1182183
vn -0.981876 -0.1812711 -0.05532132
vn 0 1 0
vn -0.9225212 0.3756967 0.08835429
vn 0.9053101 -0.4129597 -0.09938819
vn 0.9527434 -0.2870166 -0.09950613
vn 0.9810054 -0.1841808 -0.06087629
vn 0.5703725 -0.809231 -0.1407847
vn 0.9225217 0.3756958 0.08835433
vn -0.5190179 0.831336 -0.1987481
vn 0.5190179 0.831336 -0.1987481
vn -0.1858411 0.9810156 -0.05542184
vn 0.1858411 0.9810156 -0.05542184
vn -0.4121459 0.6514737 -0.6369598
vn 0.4121459 0.6514737 -0.6369598
vn 0.1475241 -0.9768381 0.154997
vn 0.2407556 -0.9704804 -0.0143033
vn 0 -0.9949412 0.1004592
vn -0.2407556 -0.9704804 -0.0143033
vn -0.1475241 -0.9768381 0.154997
vn 0 -0.9472358 0.3205377
vn 0 -0.9999137 -0.01313907
vn 0.07992633 0.9172669 0.3901708
vn 0.09086245 0.9155071 0.3919066
vn -0.08110318 0.9170831 0.3903598
vn -0.09321371 0.9151135 0.3922735
vn 0.2378032 0.3076649 0.921299
vn 0.5731526 -0.004002792 0.8194389
vn -0.2433404 0.3072303 0.9199973
vn -0.5804768 -0.00161741 0.8142752
vn 0.2854462 0.5677695 -0.7721129
vn 0.6338099 0.4216034 -0.6484872
vn -0.6338099 0.4216034 -0.6484872
vn -0.2836359 0.5682628 -0.7724171
vn -0.3457658 0.3457439 -0.8723
vn 0.3457658 0.3457439 -0.8723
vn 0.004586302 0.1843769 -0.9828449
vn 0.003235035 0.1849754 -0.9827378
vn 6.635716E-09 0.1849764 -0.982743
vn 0 0.1855739 -0.9826303
vn -0.003235021 0.1849754 -0.9827378
vn -0.004586275 0.1843769 -0.9828449
vn -8.469269E-09 -0.1997075 0.9798556
vn 0.003235438 -0.1997064 0.9798505
vn 0.004587345 -0.2003014 0.9797236
vn 0 -0.1991114 0.9799768
vn -0.003235455 -0.1997064 0.9798505
vn -0.004587379 -0.2003014 0.9797236
vn -0.2958764 -0.8043142 -0.5153017
vn -0.6072259 -0.6419488 -0.4681651
vn 0.6072259 -0.6419488 -0.4681651
vn 0.297905 -0.8036242 -0.5152096
vn 0.8178543 0.5630047 -0.1189119
vn 0.6113691 0.7768242 -0.1509039
vn 0.9668211 -0.2375409 0.09397475
vn 0.9685717 -0.2310592 0.09208976
vn -0.9685713 -0.2310604 0.09209085
vn -0.9668237 -0.2375313 0.09397268
vn -0.7284806 0.6739857 -0.1227165
vn -0.825609 0.5541753 -0.1061108
vn -0.7419078 0.6581567 -0.1280724
vn -0.6711721 0.7310572 -0.1228143
vn -0.6046826 0.7715353 -0.1977175
vn -0.7207568 0.6878596 -0.08578362
vn -0.5948836 0.795338 -0.1164084
vn -0.6322153 0.7656471 -0.1186944
vn 0.6692722 0.7316961 -0.1292111
vn 0.5975752 0.7931019 -0.1178693
vn 0.7226479 0.6859207 -0.08539852
vn 0.6425807 0.7566544 -0.1206819
vn 0.5805983 0.7836289 -0.2209781
vn 0.7362715 0.6621317 -0.1395918
vn 0.8751421 0.06326108 0.4797128
vn 0.6423922 0.1182227 0.7572026
vn 0.9312289 0.1824887 0.3154529
vn 0.8659604 0.1312668 0.482578
vn -0.6423922 0.1182227 0.7572026
vn -0.8751421 0.06326108 0.4797128
vn -0.9312292 0.1824889 0.3154521
vn -0.8659604 0.1312668 0.482578
vn -0.6090561 0.1463484 -0.7795081
vn -0.8361362 -0.1525005 -0.5268965
vn -0.9649773 0.1489727 -0.2159307
vn -0.9762626 -0.2125462 -0.04166059
vn 0.9649773 0.1489727 -0.2159307
vn 0.9762626 -0.2125462 -0.04166059
vn 0.6116371 0.1457866 -0.7775901
vn 0.8372394 -0.1510249 -0.5255679
vn -0.360487 0.1889501 -0.9134259
vn -0.7165571 0.2945319 -0.6322949
vn 0.356987 0.1894124 -0.9147039
vn 0.7111524 0.2961783 -0.6376055

usemtl g51_bird_1
f 3/2/1 2/2/1 1/1/1
f 6/4/2 5/4/2 4/3/2
f 9/7/3 8/6/3 7/5/3
f 8/6/4 10/8/4 7/5/4
f 11/11/9 9/10/8 12/9/7
f 15/2/10 14/1/10 13/2/10
f 18/4/11 17/3/11 16/4/11
f 20/7/12 19/5/12 8/6/12
f 8/6/13 19/5/13 10/8/13
f 11/11/17 12/9/16 20/12/15
f 23/15/18 22/14/18 21/13/18
f 23/15/19 25/13/19 24/14/19
f 28/18/20 27/17/20 26/16/20
f 28/18/21 30/20/21 29/19/21
f 32/23/22 21/22/22 31/21/22
f 37/25/26 36/25/26 35/24/26
f 38/24/27 37/25/27 35/24/27
f 41/25/28 40/24/28 39/25/28
f 42/24/29 40/24/29 41/25/29
f 44/23/37 43/21/36 34/23/25
f 25/27/40 33/26/39 26/27/31
f 40/32/42 50/31/41 49/30/41
f 51/33/43 49/30/41 50/31/41
f 54/36/45 53/35/44 52/34/44
f 42/37/46 52/34/44 53/35/44
f 10/8/49 55/8/48 7/5/47
f 32/23/51 31/21/50 46/23/50
f 45/21/52 46/23/50 31/21/50
f 21/27/55 30/27/33 31/26/54
f 58/33/57 57/31/56 56/30/56
f 35/32/58 56/30/56 57/31/56
f 38/39/60 60/35/59 59/38/59
f 61/36/61 59/38/59 60/35/59
f 10/8/64 19/5/63 55/8/62
f 29/19/65 62/40/65 28/18/65
f 62/40/66 27/17/66 28/18/66
f 20/10/15 60/35/68 38/39/67
f 20/10/15 12/9/16 60/35/68
f 12/9/7 9/10/8 53/35/69
f 9/10/8 42/37/70 53/35/69
f 59/41/71 37/25/71 38/24/71
f 59/41/72 13/2/72 37/25/72
f 2/2/73 52/41/73 41/25/73
f 52/41/74 42/24/74 41/25/74
f 1/1/75 2/2/75 63/42/75
f 2/2/76 41/25/76 63/42/76
f 64/43/77 1/1/77 6/4/77
f 1/1/78 63/42/78 6/4/78
f 65/44/79 64/43/79 4/3/79
f 64/43/80 6/4/80 4/3/80
f 13/2/81 66/42/81 37/25/81
f 13/2/82 14/1/82 66/42/82
f 14/1/83 18/4/83 66/42/83
f 14/1/84 67/43/84 18/4/84
f 18/4/85 67/43/85 17/3/85
f 67/43/79 68/44/79 17/3/79
f 69/46/86 51/45/86 50/47/86
f 57/49/87 58/48/87 69/46/87
f 55/50/88 69/46/88 50/47/88
f 55/50/89 57/49/89 69/46/89
f 69/52/90 70/51/90 51/45/90
f 69/52/91 58/48/91 70/51/91
f 71/55/94 61/54/93 60/53/92
f 53/57/96 54/56/95 71/55/94
f 53/57/96 71/55/94 12/58/97
f 71/55/94 60/53/92 12/58/97
f 54/56/95 62/59/98 71/55/94
f 62/59/98 61/54/93 71/55/94
f 55/61/62 19/60/63 57/31/99
f 19/60/63 35/32/100 57/31/99
f 55/61/48 50/31/101 7/60/47
f 50/31/101 40/32/102 7/60/47
f 20/64/103 35/63/103 19/62/103
f 20/64/104 38/65/104 35/63/104
f 7/68/105 40/67/105 9/66/105
f 40/67/106 42/69/106 9/66/106
f 22/14/107 58/33/107 56/30/107
f 22/14/108 70/70/108 58/33/108
f 70/70/109 24/14/109 51/33/109
f 24/14/110 49/30/110 51/33/110
f 24/14/111 70/70/111 23/15/111
f 70/70/112 22/14/112 23/15/112
f 23/71/115 34/23/114 25/22/113
f 23/71/115 48/29/116 34/23/114
f 48/29/116 23/71/115 32/23/117
f 23/71/115 21/22/118 32/23/117
f 26/27/121 44/28/120 28/72/119
f 44/28/120 47/73/122 28/72/119
f 30/27/124 28/72/119 46/28/123
f 28/72/119 47/73/122 46/28/123
f 27/19/125 54/36/125 52/34/125
f 27/19/126 62/40/126 54/36/126
f 62/40/127 29/19/127 61/36/127
f 29/19/128 59/38/128 61/36/128
f 72/42/129 16/4/129 14/1/129
f 16/4/130 67/43/130 14/1/130
f 16/4/131 68/44/131 67/43/131
f 16/4/132 17/3/132 68/44/132
f 4/3/133 5/4/133 65/44/133
f 5/4/134 64/43/134 65/44/134
f 5/4/135 1/1/135 64/43/135
f 5/4/136 73/42/136 1/1/136
f 73/42/139 39/25/138 1/1/137
f 39/25/138 3/2/140 1/1/137
f 3/2/140 39/25/138 49/41/141
f 39/25/138 40/24/142 49/41/141
f 15/2/145 56/41/144 36/25/143
f 56/41/144 35/24/146 36/25/143
f 14/1/148 36/25/143 72/42/147
f 14/1/148 15/2/145 36/25/143
f 37/25/149 72/42/149 36/25/149
f 37/25/150 66/42/150 72/42/150
f 72/42/151 18/4/151 16/4/151
f 72/42/152 66/42/152 18/4/152
f 63/42/153 41/25/153 73/42/153
f 41/25/154 39/25/154 73/42/154
f 5/4/155 6/4/155 73/42/155
f 6/4/156 63/42/156 73/42/156
f 49/76/157 27/75/157 52/74/157
f 49/76/158 24/77/158 27/75/158
f 24/77/159 25/78/159 27/75/159
f 25/78/160 26/79/160 27/75/160
f 29/82/161 21/81/161 22/80/161
f 29/82/162 30/83/162 21/81/162
f 29/82/163 56/85/163 59/84/163
f 29/82/164 22/80/164 56/85/164
f 2/2/165 49/41/165 52/41/165
f 2/2/166 3/2/166 49/41/166
f 59/41/167 56/41/167 13/2/167
f 56/41/168 15/2/168 13/2/168
f 20/7/14 8/6/6 9/7/5
f 9/7/5 11/6/6 20/7/14
f 43/21/36 33/21/24 25/22/23
f 25/22/23 34/23/25 43/21/36
f 43/26/30 44/28/32 26/27/31
f 26/27/31 33/26/39 43/26/30
f 30/27/33 46/28/35 45/26/34
f 45/26/34 31/26/54 30/27/33
f 34/23/38 48/29/38 47/29/38
f 47/29/38 44/23/38 34/23/38
f 48/29/53 32/23/53 46/23/53
f 46/23/53 47/29/53 48/29/53

